<svg width="100" height="24" viewBox="0 0 154 34" fill="none" xmlns="http://www.w3.org/2000/svg">
<path d="M0.14 0.799998H4.74L14.4 20.35C14.6453 20.7487 14.8447 21.224 14.998 21.776C15.1207 22.236 15.1973 22.5273 15.228 22.65H15.412C15.4427 22.5273 15.5193 22.236 15.642 21.776C15.7953 21.224 15.9947 20.7487 16.24 20.35L25.9 0.799998H30.5V33H25.9V12.76C25.9 12.2693 25.9307 11.4413 25.992 10.276L26.084 8.85H25.9L25.486 10.276C25.394 10.5213 25.256 10.92 25.072 11.472C24.888 11.9933 24.704 12.4227 24.52 12.76L17.16 27.25H13.48L6.12 12.76C5.936 12.4227 5.752 11.9933 5.568 11.472C5.384 10.92 5.246 10.5213 5.154 10.276L4.74 8.85H4.556L4.648 10.276C4.70933 11.4413 4.74 12.2693 4.74 12.76V33H0.14V0.799998ZM47.0528 33.46C43.8635 33.46 41.3795 32.448 39.6008 30.424C37.8221 28.4 36.9328 25.4253 36.9328 21.5C36.9328 17.6053 37.7915 14.646 39.5088 12.622C41.2261 10.5673 43.5108 9.54 46.3628 9.54C49.2148 9.54 51.4995 10.5673 53.2168 12.622C54.9341 14.646 55.7928 17.6053 55.7928 21.5V22.19L54.8728 23.11H41.5328C41.5328 25.4713 42.0541 27.25 43.0968 28.446C44.1395 29.642 45.6115 30.24 47.5128 30.24C48.6475 30.24 49.8281 29.9027 51.0548 29.228C51.6988 28.86 52.2048 28.5073 52.5728 28.17H53.0328L54.6428 30.93C54.0908 31.39 53.4008 31.8193 52.5728 32.218C50.9781 33.046 49.1381 33.46 47.0528 33.46ZM51.1928 19.89C51.1928 17.4673 50.7481 15.6733 49.8588 14.508C49.0001 13.3427 47.8348 12.76 46.3628 12.76C44.8908 12.76 43.7101 13.3427 42.8208 14.508C41.9621 15.6733 41.5328 17.4673 41.5328 19.89H51.1928ZM68.4374 33.46C66.9348 33.46 65.5548 33.0153 64.2974 32.126C63.0401 31.206 62.0281 29.8567 61.2614 28.078C60.5254 26.2687 60.1574 24.076 60.1574 21.5C60.1574 17.6053 61.0008 14.646 62.6874 12.622C64.3741 10.5673 66.5974 9.54 69.3574 9.54C70.4001 9.54 71.5808 9.77 72.8994 10.23L74.4174 10.92V2.18L75.7974 0.799998H79.0174V33H75.7974L75.3374 30.24H75.1074C74.6781 30.8533 74.1414 31.39 73.4974 31.85C72.1481 32.9233 70.4614 33.46 68.4374 33.46ZM69.5874 30.01C70.7221 30.01 71.8721 29.55 73.0374 28.63C73.5588 28.2007 74.0188 27.7407 74.4174 27.25V13.68C74.1414 13.5267 73.7274 13.3733 73.1754 13.22C72.1328 12.9133 71.0901 12.76 70.0474 12.76C68.4528 12.76 67.1648 13.4653 66.1834 14.876C65.2328 16.256 64.7574 18.464 64.7574 21.5C64.7574 24.4133 65.2021 26.56 66.0914 27.94C67.0114 29.32 68.1768 30.01 69.5874 30.01ZM88.2246 6.32C87.4273 6.32 86.7679 6.05933 86.2466 5.538C85.7253 5.01667 85.4646 4.35733 85.4646 3.56C85.4646 2.76267 85.7253 2.10333 86.2466 1.582C86.7679 1.06066 87.4273 0.799998 88.2246 0.799998C89.0219 0.799998 89.6813 1.06066 90.2026 1.582C90.7239 2.10333 90.9846 2.76267 90.9846 3.56C90.9846 4.35733 90.7239 5.01667 90.2026 5.538C89.6813 6.05933 89.0219 6.32 88.2246 6.32ZM85.9246 33V10H90.5246V33H85.9246ZM105.245 33.46C102.945 33.46 101.059 32.7393 99.5866 31.298C98.1453 29.826 97.4246 27.94 97.4246 25.64V10H102.025V25.64C102.025 26.928 102.423 27.986 103.221 28.814C104.049 29.6113 105.107 30.01 106.395 30.01C107.529 30.01 108.679 29.55 109.845 28.63C110.335 28.2313 110.795 27.7713 111.225 27.25V10H115.825V33H112.605L112.145 30.24H111.915C111.485 30.8533 110.949 31.39 110.305 31.85C108.955 32.9233 107.269 33.46 105.245 33.46ZM122.716 10H125.936L126.396 12.76H126.626C127.055 12.2693 127.607 11.7327 128.282 11.15C129.723 10.0767 131.241 9.54 132.836 9.54C134.614 9.54 136.163 10.0767 137.482 11.15C138.095 11.702 138.54 12.2387 138.816 12.76C139.245 12.3 139.874 11.7633 140.702 11.15C142.419 10.0767 144.09 9.54 145.716 9.54C147.096 9.54 148.338 9.87733 149.442 10.552C150.576 11.196 151.466 12.116 152.11 13.312C152.754 14.508 153.076 15.8573 153.076 17.36V33H148.476V17.36C148.476 16.1027 148.092 15.06 147.326 14.232C146.559 13.404 145.639 12.99 144.566 12.99C143.615 12.99 142.603 13.3733 141.53 14.14C141.192 14.3547 140.748 14.738 140.196 15.29V33H135.596V17.36C135.596 16.1027 135.212 15.06 134.446 14.232C133.679 13.404 132.759 12.99 131.686 12.99C130.704 12.99 129.692 13.45 128.65 14.37C128.251 14.7073 127.806 15.1673 127.316 15.75V33H122.716V10Z" fill="black"/>
</svg>
