<svg width="128" height="50" viewBox="0 0 228 70" fill="none" xmlns="http://www.w3.org/2000/svg">
<path d="M61.14 11.8H65.74L75.4 31.35C75.6453 31.7487 75.8447 32.224 75.998 32.776C76.1207 33.236 76.1973 33.5273 76.228 33.65H76.412C76.4427 33.5273 76.5193 33.236 76.642 32.776C76.7953 32.224 76.9947 31.7487 77.24 31.35L86.9 11.8H91.5V44H86.9V23.76C86.9 23.2693 86.9307 22.4413 86.992 21.276L87.084 19.85H86.9L86.486 21.276C86.394 21.5213 86.256 21.92 86.072 22.472C85.888 22.9933 85.704 23.4227 85.52 23.76L78.16 38.25H74.48L67.12 23.76C66.936 23.4227 66.752 22.9933 66.568 22.472C66.384 21.92 66.246 21.5213 66.154 21.276L65.74 19.85H65.556L65.648 21.276C65.7093 22.4413 65.74 23.2693 65.74 23.76V44H61.14V11.8ZM108.053 44.46C104.863 44.46 102.379 43.448 100.601 41.424C98.8221 39.4 97.9328 36.4253 97.9328 32.5C97.9328 28.6053 98.7915 25.646 100.509 23.622C102.226 21.5673 104.511 20.54 107.363 20.54C110.215 20.54 112.499 21.5673 114.217 23.622C115.934 25.646 116.793 28.6053 116.793 32.5V33.19L115.873 34.11H102.533C102.533 36.4713 103.054 38.25 104.097 39.446C105.139 40.642 106.611 41.24 108.513 41.24C109.647 41.24 110.828 40.9027 112.055 40.228C112.699 39.86 113.205 39.5073 113.573 39.17H114.033L115.643 41.93C115.091 42.39 114.401 42.8193 113.573 43.218C111.978 44.046 110.138 44.46 108.053 44.46ZM112.193 30.89C112.193 28.4673 111.748 26.6733 110.859 25.508C110 24.3427 108.835 23.76 107.363 23.76C105.891 23.76 104.71 24.3427 103.821 25.508C102.962 26.6733 102.533 28.4673 102.533 30.89H112.193ZM129.437 44.46C127.935 44.46 126.555 44.0153 125.297 43.126C124.04 42.206 123.028 40.8567 122.261 39.078C121.525 37.2687 121.157 35.076 121.157 32.5C121.157 28.6053 122.001 25.646 123.687 23.622C125.374 21.5673 127.597 20.54 130.357 20.54C131.4 20.54 132.581 20.77 133.899 21.23L135.417 21.92V13.18L136.797 11.8H140.017V44H136.797L136.337 41.24H136.107C135.678 41.8533 135.141 42.39 134.497 42.85C133.148 43.9233 131.461 44.46 129.437 44.46ZM130.587 41.01C131.722 41.01 132.872 40.55 134.037 39.63C134.559 39.2007 135.019 38.7407 135.417 38.25V24.68C135.141 24.5267 134.727 24.3733 134.175 24.22C133.133 23.9133 132.09 23.76 131.047 23.76C129.453 23.76 128.165 24.4653 127.183 25.876C126.233 27.256 125.757 29.464 125.757 32.5C125.757 35.4133 126.202 37.56 127.091 38.94C128.011 40.32 129.177 41.01 130.587 41.01ZM149.225 17.32C148.427 17.32 147.768 17.0593 147.247 16.538C146.725 16.0167 146.465 15.3573 146.465 14.56C146.465 13.7627 146.725 13.1033 147.247 12.582C147.768 12.0607 148.427 11.8 149.225 11.8C150.022 11.8 150.681 12.0607 151.203 12.582C151.724 13.1033 151.985 13.7627 151.985 14.56C151.985 15.3573 151.724 16.0167 151.203 16.538C150.681 17.0593 150.022 17.32 149.225 17.32ZM146.925 44V21H151.525V44H146.925ZM166.245 44.46C163.945 44.46 162.059 43.7393 160.587 42.298C159.145 40.826 158.425 38.94 158.425 36.64V21H163.025V36.64C163.025 37.928 163.423 38.986 164.221 39.814C165.049 40.6113 166.107 41.01 167.395 41.01C168.529 41.01 169.679 40.55 170.845 39.63C171.335 39.2313 171.795 38.7713 172.225 38.25V21H176.825V44H173.605L173.145 41.24H172.915C172.485 41.8533 171.949 42.39 171.305 42.85C169.955 43.9233 168.269 44.46 166.245 44.46ZM183.716 21H186.936L187.396 23.76H187.626C188.055 23.2693 188.607 22.7327 189.282 22.15C190.723 21.0767 192.241 20.54 193.836 20.54C195.614 20.54 197.163 21.0767 198.482 22.15C199.095 22.702 199.54 23.2387 199.816 23.76C200.245 23.3 200.874 22.7633 201.702 22.15C203.419 21.0767 205.09 20.54 206.716 20.54C208.096 20.54 209.338 20.8773 210.442 21.552C211.576 22.196 212.466 23.116 213.11 24.312C213.754 25.508 214.076 26.8573 214.076 28.36V44H209.476V28.36C209.476 27.1027 209.092 26.06 208.326 25.232C207.559 24.404 206.639 23.99 205.566 23.99C204.615 23.99 203.603 24.3733 202.53 25.14C202.192 25.3547 201.748 25.738 201.196 26.29V44H196.596V28.36C196.596 27.1027 196.212 26.06 195.446 25.232C194.679 24.404 193.759 23.99 192.686 23.99C191.704 23.99 190.692 24.45 189.65 25.37C189.251 25.7073 188.806 26.1673 188.316 26.75V44H183.716V21Z" fill="white"/>
<ellipse cx="14.5" cy="26" rx="14.5" ry="18" fill="white"/>
<ellipse cx="39" cy="26" rx="9" ry="18" fill="white"/>
<ellipse cx="53" cy="26" rx="4" ry="18" fill="white"/>
</svg>
